<?xml version="1.0" encoding="UTF-8" standalone="no"?>
<svg
   xmlns:dc="http://purl.org/dc/elements/1.1/"
   xmlns:cc="http://creativecommons.org/ns#"
   xmlns:rdf="http://www.w3.org/1999/02/22-rdf-syntax-ns#"
   xmlns:svg="http://www.w3.org/2000/svg"
   xmlns="http://www.w3.org/2000/svg"
   xmlns:sodipodi="http://sodipodi.sourceforge.net/DTD/sodipodi-0.dtd"
   xmlns:inkscape="http://www.inkscape.org/namespaces/inkscape"
   viewBox="0 0 151.53712 148.12612"
   height="148.12611"
   width="151.53712"
   version="1.1"
   id="svg3390"
   inkscape:version="0.91 r13725"
   sodipodi:docname="pricerunner_plain.svg">
  <sodipodi:namedview
     pagecolor="#ffffff"
     bordercolor="#666666"
     borderopacity="1"
     objecttolerance="10"
     gridtolerance="10"
     guidetolerance="10"
     inkscape:pageopacity="0"
     inkscape:pageshadow="2"
     inkscape:window-width="917"
     inkscape:window-height="613"
     id="namedview6"
     showgrid="false"
     fit-margin-top="0"
     fit-margin-left="0"
     fit-margin-right="0"
     fit-margin-bottom="0"
     inkscape:zoom="0.39774184"
     inkscape:cx="384.2968"
     inkscape:cy="46.272247"
     inkscape:window-x="0"
     inkscape:window-y="0"
     inkscape:window-maximized="0"
     inkscape:current-layer="svg3390" />
  <metadata
     id="metadata3396">
    <rdf:RDF>
      <cc:Work
         rdf:about="">
        <dc:format>image/svg+xml</dc:format>
        <dc:type
           rdf:resource="http://purl.org/dc/dcmitype/StillImage" />
        <dc:title></dc:title>
      </cc:Work>
    </rdf:RDF>
  </metadata>
  <defs
     id="defs3394" />
  <path
     id="path3409"
     d="m 3.1584147,147.8107 c -2.60523996,-1.03884 -3.74952996,-4.0443 -2.86072996,-7.51363 0.48629,-1.8982 6.78784026,-14.77455 12.16100026,-24.84933 11.41322,-21.40006 25.14186,-42.975298 38.91484,-61.156606 3.25823,-4.3011 4.03284,-5.527002 4.59289,-7.268766 1.54045,-4.790811 -0.55589,-8.944956 -5.2117,-10.327584 -3.92326,-1.16508 -7.80796,-0.137598 -14.14646,3.74166 -2.7238,1.667013 -9.13153,6.502728 -12.74361,9.617226 -3.6342,3.133563 -4.72803,3.707217 -7.10836,3.727944 -1.41788,0.01236 -2.05075,-0.129507 -2.7,-0.605196 -2.15005,-1.575288 -2.42407,-4.509402 -0.73384,-7.857738 1.7735,-3.513279 9.45588,-11.698317 15.03581,-16.019604 5.80732,-4.497381 14.15162,-9.23937 19.2727,-10.95249 2.24378,-0.7506 2.87321,-0.827751 6.6773,-0.818472 3.91568,0.0095 4.38894,0.07463 6.99104,0.961338 8.714573,2.969628 18.202213,7.159146 24.098513,10.641333 4.09781,2.420046 5.14819,3.717297 5.14344,6.352314 -0.005,2.688015 -0.89975,4.044381 -5.94764,9.014643 -25.444303,25.05302 -44.028323,49.713578 -69.439463,92.144528 -2.65335,4.43051 -5.25664,8.51075 -5.78508,9.06721 -1.09764,1.15582 -3.60146,2.4401 -4.71081,2.41631 -0.4125003,-0.009 -1.0874303,-0.15063 -1.4998403,-0.31509 z M 47.398485,108.57288 c -1.561,-0.80426 -2.24023,-1.9742 -2.24023,-3.85871 0,-2.28181 0.66025,-3.71859 4.04088,-8.793418 6.91326,-10.377862 17.99287,-24.15534 29.523103,-36.711952 4.30696,-4.690347 15.20416,-15.545037 16.507796,-16.443393 2.81715,-1.941336 6.498006,-2.581518 8.950696,-1.556718 1.27484,0.532662 4.52183,2.914179 8.17752,5.997834 3.31275,2.794368 4.2085,3.245061 6.45,3.245298 3.04246,3e-4 4.97433,-1.246242 12.10067,-7.808079 3.57642,-3.293124 4.91307,-4.039767 7.54933,-4.216992 1.64398,-0.11052 2.16186,-0.01755 3.3,0.592455 2.04157,1.094202 2.74393,2.513904 2.63616,5.328537 -0.10706,2.795847 -0.87126,4.411839 -4.14405,8.763024 -5.37741,7.149294 -14.77702,15.988566 -19.48499,18.323426 -2.44225,1.21121 -5.82082,1.4717 -8.60349,0.66335 -1.52464,-0.4429 -8.7253,-4.09755 -11.80363,-5.990854 -2.878296,-1.770273 -5.711346,-2.026758 -7.718112,-0.698742 -2.13015,1.40967 -3.05131,4.515296 -2.1267,7.170026 0.19534,0.56088 2.10603,4.12477 4.245966,7.919768 5.825626,10.33126 8.214206,15.062652 8.546596,16.929392 0.6221,3.493908 -1.04027,6.213418 -4.476496,7.323198 -2.06484,0.66687 -11.895326,1.85703 -22.621246,2.73872 -10.054793,0.82652 -18.505273,1.40134 -22.650003,1.5407 -4.60696,0.1549 -5.03383,0.12324 -6.15977,-0.45687 z m 104.138635,-6.55014 c -133.919245,52.35 -66.959612,26.175 0,0 z M 106.79374,33.128807 C 102.8057,32.160035 98.673684,29.200193 96.431604,25.70621 93.930628,21.80876 93.199488,16.250591 94.595128,11.745134 97.243294,3.196202 106.11611,-1.700908 114.89106,0.54334401 c 3.06365,0.78354899 5.28225,2.08026599 7.6752,4.48596299 3.26125,3.2786128 4.79199,7.021917 4.79199,11.718435 0,4.777833 -1.52735,8.444388 -4.94088,11.861064 -4.08332,4.08708 -10.164,5.846256 -15.62363,4.520001 z"
     style="fill:#000000"
     inkscape:connector-curvature="0" />
</svg>
